<svg xmlns="http://www.w3.org/2000/svg" xmlns:v="https://svgstorm.com"
viewBox = "0 0 159 178"
width="159"
height="178">
<g fill="None" fill-opacity="0.0" stroke="#000000" stroke-opacity="0.00" stroke-width="0.3"><path d="
M 0.00 6.00 
C 1.49 3.76 3.97 1.62 6.00 0.00
L 0.00 0.00
L 0.00 6.00 Z"/>
</g>
<g fill="None" fill-opacity="0.0" stroke="#3B4496" stroke-opacity="1.00" stroke-width="0.3"><path d="
M 0.00 6.00 
L 0.00 172.00
C 1.49 174.24 3.97 176.38 6.00 178.00
L 153.00 178.00
C 162.28 167.42 157.24 150.60 158.00 136.00 C 158.76 121.40 158.00 103.86 158.00 89.00 C 158.00 74.14 158.76 56.60 158.00 42.00 C 157.24 27.40 162.26 10.52 153.00 0.00
L 6.00 0.00
C 3.97 1.62 1.49 3.76 0.00 6.00
M 38.00 77.00 
C 36.71 83.33 36.22 91.34 37.00 98.00
C 41.48 116.67 52.01 133.52 71.08 140.92 C 90.15 148.33 114.64 144.44 129.00 129.00
C 136.71 132.98 141.81 141.91 149.00 147.00
C 100.50 199.18 10.82 162.00 9.00 92.00 C 7.18 22.00 96.95 -21.07 148.00 31.00
C 141.54 37.24 134.13 54.20 124.75 46.25 C 115.37 38.30 101.26 34.93 89.00 35.00 C 76.74 35.07 65.18 40.23 55.77 47.77 C 46.36 55.31 40.93 65.96 38.00 77.00
M 94.00 70.00 
C 118.40 73.05 113.17 113.21 88.00 109.00 C 62.83 104.79 69.58 66.95 94.00 70.00 Z"/>
</g>
<g fill="None" fill-opacity="0.0" stroke="#000000" stroke-opacity="0.00" stroke-width="0.3"><path d="
M 153.00 178.00 
L 159.00 178.00
L 159.00 0.00
L 153.00 0.00
C 162.26 10.52 157.24 27.40 158.00 42.00 C 158.76 56.60 158.00 74.14 158.00 89.00 C 158.00 103.86 158.76 121.40 158.00 136.00 C 157.24 150.60 162.28 167.42 153.00 178.00 Z"/>
</g>
<g fill="None" fill-opacity="0.0" stroke="#FBE2E9" stroke-opacity="1.00" stroke-width="0.3"><path d="
M 37.00 98.00 
C 35.37 91.19 35.92 83.48 38.00 77.00
C 40.93 65.96 46.36 55.31 55.77 47.77 C 65.18 40.23 76.74 35.07 89.00 35.00 C 101.26 34.93 115.37 38.30 124.75 46.25 C 134.13 54.20 141.54 37.24 148.00 31.00
C 96.95 -21.07 7.18 22.00 9.00 92.00 C 10.82 162.00 100.50 199.18 149.00 147.00
C 141.81 141.91 136.71 132.98 129.00 129.00
C 114.64 144.44 90.15 148.33 71.08 140.92 C 52.01 133.52 41.48 116.67 37.00 98.00 Z"/>
</g>
<g fill="None" fill-opacity="0.0" stroke="#FAE2E9" stroke-opacity="1.00" stroke-width="0.3"><path d="
M 94.00 70.00 
C 69.58 66.95 62.83 104.79 88.00 109.00 C 113.17 113.21 118.40 73.05 94.00 70.00 Z"/>
</g>
<g fill="None" fill-opacity="0.0" stroke="#A097C1" stroke-opacity="1.00" stroke-width="0.3"><path d="
M 37.00 98.00 
C 36.22 91.34 36.71 83.33 38.00 77.00
C 35.92 83.48 35.37 91.19 37.00 98.00 Z"/>
</g>
<g fill="None" fill-opacity="0.0" stroke="#000000" stroke-opacity="0.00" stroke-width="0.3"><path d="
M 0.00 178.00 
L 6.00 178.00
C 3.97 176.38 1.49 174.24 0.00 172.00
L 0.00 178.00 Z"/>
</g>
<g fill="#000000" fill-opacity="0.00" stroke="None">
<path d="
M 0.00 6.00 
C 1.49 3.76 3.97 1.62 6.00 0.00
L 0.00 0.00
L 0.00 6.00 Z"/>
</g>
<g fill="#3B4496" fill-opacity="1.00" stroke="None">
<path d="
M 0.00 6.00 
L 0.00 172.00
C 1.49 174.24 3.97 176.38 6.00 178.00
L 153.00 178.00
C 162.28 167.42 157.24 150.60 158.00 136.00 C 158.76 121.40 158.00 103.86 158.00 89.00 C 158.00 74.14 158.76 56.60 158.00 42.00 C 157.24 27.40 162.26 10.52 153.00 0.00
L 6.00 0.00
C 3.97 1.62 1.49 3.76 0.00 6.00
M 38.00 77.00 
C 36.71 83.33 36.22 91.34 37.00 98.00
C 41.48 116.67 52.01 133.52 71.08 140.92 C 90.15 148.33 114.64 144.44 129.00 129.00
C 136.71 132.98 141.81 141.91 149.00 147.00
C 100.50 199.18 10.82 162.00 9.00 92.00 C 7.18 22.00 96.95 -21.07 148.00 31.00
C 141.54 37.24 134.13 54.20 124.75 46.25 C 115.37 38.30 101.26 34.93 89.00 35.00 C 76.74 35.07 65.18 40.23 55.77 47.77 C 46.36 55.31 40.93 65.96 38.00 77.00
M 94.00 70.00 
C 118.40 73.05 113.17 113.21 88.00 109.00 C 62.83 104.79 69.58 66.95 94.00 70.00 Z"/>
</g>
<g fill="#000000" fill-opacity="0.00" stroke="None">
<path d="
M 153.00 178.00 
L 159.00 178.00
L 159.00 0.00
L 153.00 0.00
C 162.26 10.52 157.24 27.40 158.00 42.00 C 158.76 56.60 158.00 74.14 158.00 89.00 C 158.00 103.86 158.76 121.40 158.00 136.00 C 157.24 150.60 162.28 167.42 153.00 178.00 Z"/>
</g>
<g fill="#FBE2E9" fill-opacity="1.00" stroke="None">
<path d="
M 37.00 98.00 
C 35.37 91.19 35.92 83.48 38.00 77.00
C 40.93 65.96 46.36 55.31 55.77 47.77 C 65.18 40.23 76.74 35.07 89.00 35.00 C 101.26 34.93 115.37 38.30 124.75 46.25 C 134.13 54.20 141.54 37.24 148.00 31.00
C 96.95 -21.07 7.18 22.00 9.00 92.00 C 10.82 162.00 100.50 199.18 149.00 147.00
C 141.81 141.91 136.71 132.98 129.00 129.00
C 114.64 144.44 90.15 148.33 71.08 140.92 C 52.01 133.52 41.48 116.67 37.00 98.00 Z"/>
</g>
<g fill="#FAE2E9" fill-opacity="1.00" stroke="None">
<path d="
M 94.00 70.00 
C 69.58 66.95 62.83 104.79 88.00 109.00 C 113.17 113.21 118.40 73.05 94.00 70.00 Z"/>
</g>
<g fill="#A097C1" fill-opacity="1.00" stroke="None">
<path d="
M 37.00 98.00 
C 36.22 91.34 36.71 83.33 38.00 77.00
C 35.92 83.48 35.37 91.19 37.00 98.00 Z"/>
</g>
<g fill="#000000" fill-opacity="0.00" stroke="None">
<path d="
M 0.00 178.00 
L 6.00 178.00
C 3.97 176.38 1.49 174.24 0.00 172.00
L 0.00 178.00 Z"/>
</g>
</svg>