<?xml version="1.0" standalone="no"?>
<!DOCTYPE svg PUBLIC "-//W3C//DTD SVG 20010904//EN"
 "http://www.w3.org/TR/2001/REC-SVG-20010904/DTD/svg10.dtd">
<svg version="1.0" xmlns="http://www.w3.org/2000/svg"
 width="159.000000pt" height="178.000000pt" viewBox="0 0 159.000000 178.000000"
 preserveAspectRatio="xMidYMid meet">

<g transform="translate(0.000000,178.000000) scale(0.100000,-0.100000)"
fill="#000000" stroke="none">
<path d="M70 1771 c-14 -4 -35 -22 -47 -40 l-23 -34 0 -803 c0 -497 4 -812 10
-828 5 -14 24 -35 42 -46 32 -19 51 -20 744 -20 l711 0 34 23 34 23 3 832 c1
585 -1 839 -9 853 -26 49 -31 49 -776 48 -384 -1 -709 -4 -723 -8z m998 -87
c137 -28 279 -98 392 -193 l35 -29 -96 -98 -96 -97 -53 42 c-71 56 -116 78
-207 102 -187 47 -374 -4 -512 -141 -109 -108 -161 -233 -161 -387 0 -156 58
-291 171 -398 113 -106 221 -149 374 -148 120 1 202 28 307 99 l81 56 94 -94
94 -93 -53 -47 c-159 -141 -412 -218 -625 -190 -278 37 -504 192 -627 432 -61
117 -86 212 -93 346 -12 241 73 456 249 627 188 183 468 264 726 211z m-91
-617 c77 -29 127 -102 127 -187 1 -65 -21 -108 -76 -153 -65 -53 -181 -50
-244 5 -90 79 -96 207 -14 287 58 56 135 74 207 48z"/>
</g>
</svg>
